<svg width="34" height="29" viewBox="0 0 34 29" fill="none" xmlns="http://www.w3.org/2000/svg">
<path d="M2.75012 8.25L4.83012 8.61L5.79312 20.083C5.87012 21.02 6.65312 21.739 7.59312 21.736H18.5021C19.3991 21.738 20.1601 21.078 20.2871 20.19L21.2361 13.632C21.3421 12.899 20.8331 12.219 20.1011 12.113C20.0371 12.104 5.16412 12.099 5.16412 12.099" stroke="white" stroke-width="1.5" stroke-linecap="round" stroke-linejoin="round"/>
<path d="M14.1251 15.7949H16.8981" stroke="white" stroke-width="1.5" stroke-linecap="round" stroke-linejoin="round"/>
<path fill-rule="evenodd" clip-rule="evenodd" d="M7.15447 25.2026C7.45547 25.2026 7.69847 25.4466 7.69847 25.7466C7.69847 26.0476 7.45547 26.2916 7.15447 26.2916C6.85347 26.2916 6.61047 26.0476 6.61047 25.7466C6.61047 25.4466 6.85347 25.2026 7.15447 25.2026Z" fill="white" stroke="white" stroke-width="1.5" stroke-linecap="round" stroke-linejoin="round"/>
<path fill-rule="evenodd" clip-rule="evenodd" d="M18.4347 25.2026C18.7357 25.2026 18.9797 25.4466 18.9797 25.7466C18.9797 26.0476 18.7357 26.2916 18.4347 26.2916C18.1337 26.2916 17.8907 26.0476 17.8907 25.7466C17.8907 25.4466 18.1337 25.2026 18.4347 25.2026Z" fill="white" stroke="white" stroke-width="1.5" stroke-linecap="round" stroke-linejoin="round"/>
<rect x="17" width="17" height="16" rx="8" fill="#81BC3D"/>
<path d="M27.749 10.2578V11H23.0957V10.3506L25.4248 7.75781C25.7113 7.4388 25.9326 7.16862 26.0889 6.94727C26.2484 6.72266 26.359 6.52246 26.4209 6.34668C26.486 6.16764 26.5186 5.98535 26.5186 5.7998C26.5186 5.56543 26.4697 5.35384 26.3721 5.16504C26.2777 4.97298 26.1377 4.81999 25.9521 4.70605C25.7666 4.59212 25.542 4.53516 25.2783 4.53516C24.9626 4.53516 24.6989 4.59701 24.4873 4.7207C24.279 4.84115 24.1227 5.01042 24.0186 5.22852C23.9144 5.44661 23.8623 5.69727 23.8623 5.98047H22.959C22.959 5.58008 23.0469 5.21387 23.2227 4.88184C23.3984 4.5498 23.6589 4.28613 24.0039 4.09082C24.349 3.89225 24.7738 3.79297 25.2783 3.79297C25.7275 3.79297 26.1117 3.87272 26.4307 4.03223C26.7497 4.18848 26.9938 4.40983 27.1631 4.69629C27.3356 4.97949 27.4219 5.31152 27.4219 5.69238C27.4219 5.90072 27.3861 6.1123 27.3145 6.32715C27.2461 6.53874 27.1501 6.75033 27.0264 6.96191C26.9059 7.1735 26.7643 7.38184 26.6016 7.58691C26.4421 7.79199 26.2712 7.99382 26.0889 8.19238L24.1846 10.2578H27.749Z" fill="white"/>
</svg>
