<svg width="34" height="29" viewBox="0 0 34 29" fill="none" xmlns="http://www.w3.org/2000/svg">
<path fill-rule="evenodd" clip-rule="evenodd" d="M13.1043 9.17701L14.9317 12.8278C15.1108 13.1862 15.4565 13.4347 15.8573 13.4922L19.9453 14.0806C20.9554 14.2264 21.3573 15.4505 20.6263 16.1519L17.6702 18.9924C17.3797 19.2718 17.2474 19.6733 17.3162 20.0676L18.0138 24.0778C18.1856 25.0698 17.1298 25.8267 16.227 25.3574L12.5732 23.4627C12.215 23.2768 11.786 23.2768 11.4268 23.4627L7.773 25.3574C6.87023 25.8267 5.81439 25.0698 5.98724 24.0778L6.68385 20.0676C6.75257 19.6733 6.62033 19.2718 6.32982 18.9924L3.37368 16.1519C2.64272 15.4505 3.04464 14.2264 4.05466 14.0806L8.14265 13.4922C8.54354 13.4347 8.89028 13.1862 9.06937 12.8278L10.8957 9.17701C11.3477 8.27433 12.6523 8.27433 13.1043 9.17701Z" stroke="white" stroke-width="1.5" stroke-linecap="round" stroke-linejoin="round"/>
<rect x="18" width="16" height="16" rx="8" fill="#81BC3D"/>
<path d="M28.1855 3.89062V4.39844L25.2412 11H24.2891L27.2285 4.63281H23.3809V3.89062H28.1855Z" fill="white"/>
</svg>
